<svg xmlns="http://www.w3.org/2000/svg" viewBox="0 0 70.48 69.09"><defs><style>.cls-1{fill:#b0cee6;}.cls-2{fill:#fff;}</style></defs><title>Recurso 5</title><g id="Capa_2" data-name="Capa 2"><g id="Capa_2-2" data-name="Capa 2"><rect class="cls-1" width="70.48" height="69.09" rx="16.46"/><path class="cls-2" d="M55.22,53.5h-40c-3.31,0-6-2.31-6-5.17V20.76c0-2.86,2.69-5.17,6-5.17h40c3.31,0,6,2.31,6,5.17V48.33C61.21,51.19,58.53,53.5,55.22,53.5ZM15.26,19a1.87,1.87,0,0,0-2,1.72V48.33a1.88,1.88,0,0,0,2,1.73h40a1.89,1.89,0,0,0,2-1.73V20.76a1.88,1.88,0,0,0-2-1.72Z"/><path class="cls-2" d="M45.23,32.82c-3.31,0-6-2.31-6-5.17s2.69-5.17,6-5.17,6,2.32,6,5.17S48.54,32.82,45.23,32.82Zm0-6.89a1.88,1.88,0,0,0-2,1.72,2,2,0,0,0,4,0A1.88,1.88,0,0,0,45.23,25.93Z"/><path class="cls-2" d="M55.22,53.5a2.09,2.09,0,0,1-1.66-.77l-8.67-11.2a2.2,2.2,0,0,0-2.77-.47,1.79,1.79,0,0,0-.55.47l-.68.86a2.23,2.23,0,0,1-2.81.26,1.57,1.57,0,0,1-.5-2.16l.66-.88a6.59,6.59,0,0,1,8.3-1.45,5.8,5.8,0,0,1,1.69,1.45l8.65,11.22a1.59,1.59,0,0,1-.56,2.38A2.08,2.08,0,0,1,55.22,53.5Z"/><path class="cls-2" d="M15.26,53.5a2.19,2.19,0,0,1-1.08-.27,1.59,1.59,0,0,1-.6-2.38L26,34.27a6.26,6.26,0,0,1,5-2.36h0a6.31,6.31,0,0,1,5,2.31L48.85,50.83A1.61,1.61,0,0,1,48,53.16a2.21,2.21,0,0,1-2.5-.43L32.68,36.13A2.09,2.09,0,0,0,31,35.36h0a2.08,2.08,0,0,0-1.66.79L16.94,52.71A2.1,2.1,0,0,1,15.26,53.5Z"/></g></g></svg>